<?xml version="1.0" encoding="UTF-8" standalone="no"?>
<svg
   xmlns:dc="http://purl.org/dc/elements/1.1/"
   xmlns:cc="http://creativecommons.org/ns#"
   xmlns:rdf="http://www.w3.org/1999/02/22-rdf-syntax-ns#"
   xmlns:svg="http://www.w3.org/2000/svg"
   xmlns="http://www.w3.org/2000/svg"
   xmlns:sodipodi="http://sodipodi.sourceforge.net/DTD/sodipodi-0.dtd"
   xmlns:inkscape="http://www.inkscape.org/namespaces/inkscape"
   viewBox="0.0 0.0 348.0 348.0"
   fill="none"
   version="1.1"
   id="svg6"
   sodipodi:docname="Nomai.svg"
   inkscape:version="1.0 (4035a4fb49, 2020-05-01)">
  <metadata
     id="metadata12">
    <rdf:RDF>
      <cc:Work
         rdf:about="">
        <dc:format>image/svg+xml</dc:format>
        <dc:type
           rdf:resource="http://purl.org/dc/dcmitype/StillImage" />
      </cc:Work>
    </rdf:RDF>
  </metadata>
  <defs
     id="defs10" />
  <sodipodi:namedview
     inkscape:document-rotation="0"
     pagecolor="#ffffff"
     bordercolor="#666666"
     borderopacity="1"
     objecttolerance="10"
     gridtolerance="10"
     guidetolerance="10"
     inkscape:pageopacity="0"
     inkscape:pageshadow="2"
     inkscape:window-width="1920"
     inkscape:window-height="1001"
     id="namedview8"
     showgrid="false"
     inkscape:zoom="1.6864903"
     inkscape:cx="-14.467103"
     inkscape:cy="134.40693"
     inkscape:window-x="2391"
     inkscape:window-y="-9"
     inkscape:window-maximized="1"
     inkscape:current-layer="svg6" />
  <path
     d="M5.079 5.776h336.913v337.67H5.08z"
     stroke-width="2"
     stroke="#000"
     id="path2" />
  <path
     d="M282.734 40.554c0-8.376 6.966-15.165 15.56-15.165 4.126 0 8.084 1.597 11.001 4.441 2.918 2.844 4.558 6.702 4.558 10.724 0 8.376-6.966 15.165-15.56 15.165-8.593 0-15.559-6.79-15.559-15.165z"
     stroke-width="2"
     stroke="#000"
     id="path4" />
  <path
     id="path837"
     style="fill:none;stroke:#000000;stroke-width:1.34045"
     d="M 175.51172 250.98633 A 265.47018 265.47018 0 0 0 8.8945312 309.78711 L 8.8945312 338.57227 L 338.57227 338.57227 L 338.57227 306.96875 A 265.47018 265.47018 0 0 0 175.51172 250.98633 z " />
  <circle
     style="fill:none;stroke:#000000"
     id="path841"
     cx="45.063999"
     cy="190.92905"
     r="31.42621" />
  <circle
     style="fill:none;stroke:#000000"
     id="path843"
     cx="298.25253"
     cy="184.99957"
     r="32.612106" />
  <circle
     style="fill:none;stroke:#000000"
     id="path845"
     cx="43.28516"
     cy="51.586422"
     r="29.05442" />
  <circle
     style="fill:none;stroke:#000000;stroke-width:0.9143"
     id="path847"
     cx="44.767525"
     cy="120.66479"
     r="31.172588" />
  <circle
     style="fill:none;stroke:#000000"
     id="path851"
     cx="300.32785"
     cy="111.17763"
     r="31.722685" />
  <rect
     style="fill:none;stroke:#000000"
     id="rect853"
     width="183.81369"
     height="51.586422"
     x="83.605583"
     y="19.567263" />
  <rect
     style="fill:#000000;stroke:#000000;fill-opacity:1"
     id="rect855"
     width="36.762749"
     height="51.586426"
     x="83.605583"
     y="19.567263" />
</svg>
